<mxfile host="65bd71144e">
    <diagram id="BZZcQW6atTqjhy44g_oU" name="第 1 页">
        <mxGraphModel dx="1132" dy="723" grid="0" gridSize="10" guides="1" tooltips="1" connect="1" arrows="1" fold="1" page="1" pageScale="1" pageWidth="1200" pageHeight="1600" background="#ffffff" math="1" shadow="0">
            <root>
                <mxCell id="0"/>
                <mxCell id="1" parent="0"/>
                <mxCell id="202" value="&amp;nbsp; &amp;nbsp;图" style="text;html=1;strokeColor=none;fillColor=none;align=left;verticalAlign=middle;whiteSpace=wrap;rounded=0;fontFamily=LXGW WenKai;fontSize=23;fontStyle=1" parent="1" vertex="1">
                    <mxGeometry x="83" y="56" width="235" height="39" as="geometry"/>
                </mxCell>
                <mxCell id="314" value="" style="edgeStyle=none;sketch=1;hachureGap=4;jiggle=2;curveFitting=1;html=1;fontFamily=Architects Daughter;fontSource=https%3A%2F%2Ffonts.googleapis.com%2Fcss%3Ffamily%3DArchitects%2BDaughter;fontSize=16;" edge="1" parent="1" source="310" target="313">
                    <mxGeometry relative="1" as="geometry"/>
                </mxCell>
                <mxCell id="316" value="" style="edgeStyle=none;sketch=1;hachureGap=4;jiggle=2;curveFitting=1;html=1;fontFamily=Architects Daughter;fontSource=https%3A%2F%2Ffonts.googleapis.com%2Fcss%3Ffamily%3DArchitects%2BDaughter;fontSize=16;" edge="1" parent="1" source="310" target="315">
                    <mxGeometry relative="1" as="geometry"/>
                </mxCell>
                <mxCell id="321" value="边" style="edgeLabel;html=1;align=center;verticalAlign=middle;resizable=0;points=[];fontSize=20;fontFamily=Architects Daughter;" vertex="1" connectable="0" parent="316">
                    <mxGeometry x="-0.3193" y="2" relative="1" as="geometry">
                        <mxPoint as="offset"/>
                    </mxGeometry>
                </mxCell>
                <mxCell id="310" value="" style="ellipse;whiteSpace=wrap;html=1;aspect=fixed;sketch=1;hachureGap=4;jiggle=2;curveFitting=1;fontFamily=Architects Daughter;fontSource=https%3A%2F%2Ffonts.googleapis.com%2Fcss%3Ffamily%3DArchitects%2BDaughter;fontSize=20;" vertex="1" parent="1">
                    <mxGeometry x="130" y="249" width="80" height="80" as="geometry"/>
                </mxCell>
                <mxCell id="319" style="edgeStyle=none;sketch=1;hachureGap=4;jiggle=2;curveFitting=1;html=1;entryX=0.5;entryY=0;entryDx=0;entryDy=0;fontFamily=Architects Daughter;fontSource=https%3A%2F%2Ffonts.googleapis.com%2Fcss%3Ffamily%3DArchitects%2BDaughter;fontSize=16;" edge="1" parent="1" source="313" target="317">
                    <mxGeometry relative="1" as="geometry"/>
                </mxCell>
                <mxCell id="320" style="edgeStyle=none;sketch=1;hachureGap=4;jiggle=2;curveFitting=1;html=1;entryX=0.5;entryY=0;entryDx=0;entryDy=0;fontFamily=Architects Daughter;fontSource=https%3A%2F%2Ffonts.googleapis.com%2Fcss%3Ffamily%3DArchitects%2BDaughter;fontSize=16;" edge="1" parent="1" source="313" target="315">
                    <mxGeometry relative="1" as="geometry"/>
                </mxCell>
                <mxCell id="313" value="" style="ellipse;whiteSpace=wrap;html=1;fontSize=20;fontFamily=Architects Daughter;sketch=1;hachureGap=4;jiggle=2;curveFitting=1;fontSource=https%3A%2F%2Ffonts.googleapis.com%2Fcss%3Ffamily%3DArchitects%2BDaughter;" vertex="1" parent="1">
                    <mxGeometry x="280" y="111" width="80" height="80" as="geometry"/>
                </mxCell>
                <mxCell id="318" value="" style="edgeStyle=none;sketch=1;hachureGap=4;jiggle=2;curveFitting=1;html=1;fontFamily=Architects Daughter;fontSource=https%3A%2F%2Ffonts.googleapis.com%2Fcss%3Ffamily%3DArchitects%2BDaughter;fontSize=16;" edge="1" parent="1" source="315" target="317">
                    <mxGeometry relative="1" as="geometry"/>
                </mxCell>
                <mxCell id="323" style="edgeStyle=none;sketch=1;hachureGap=4;jiggle=2;curveFitting=1;html=1;exitX=1;exitY=1;exitDx=0;exitDy=0;entryX=0;entryY=0.5;entryDx=0;entryDy=0;entryPerimeter=0;fontFamily=AlimamaDaoLiTi;fontSize=16;dashed=1;endArrow=none;endFill=0;" edge="1" parent="1" source="315" target="322">
                    <mxGeometry relative="1" as="geometry"/>
                </mxCell>
                <mxCell id="315" value="点" style="ellipse;whiteSpace=wrap;html=1;aspect=fixed;sketch=1;hachureGap=4;jiggle=2;curveFitting=1;fontFamily=Architects Daughter;fontSource=https%3A%2F%2Ffonts.googleapis.com%2Fcss%3Ffamily%3DArchitects%2BDaughter;fontSize=20;" vertex="1" parent="1">
                    <mxGeometry x="275" y="350" width="80" height="80" as="geometry"/>
                </mxCell>
                <mxCell id="317" value="" style="ellipse;whiteSpace=wrap;html=1;aspect=fixed;sketch=1;hachureGap=4;jiggle=2;curveFitting=1;fontFamily=Architects Daughter;fontSource=https%3A%2F%2Ffonts.googleapis.com%2Fcss%3Ffamily%3DArchitects%2BDaughter;fontSize=20;" vertex="1" parent="1">
                    <mxGeometry x="453" y="305" width="80" height="80" as="geometry"/>
                </mxCell>
                <mxCell id="322" value="&lt;font face=&quot;AlimamaDaoLiTi&quot;&gt;入度:2&lt;br&gt;出度:1&lt;/font&gt;" style="shape=note;whiteSpace=wrap;html=1;backgroundOutline=1;darkOpacity=0.05;sketch=1;hachureGap=4;jiggle=2;curveFitting=1;fontFamily=Architects Daughter;fontSource=https%3A%2F%2Ffonts.googleapis.com%2Fcss%3Ffamily%3DArchitects%2BDaughter;fontSize=20;align=left;fillColor=#fff2cc;strokeColor=#d6b656;" vertex="1" parent="1">
                    <mxGeometry x="383" y="422" width="80" height="100" as="geometry"/>
                </mxCell>
                <mxCell id="324" value="&amp;nbsp;" style="text;html=1;align=center;verticalAlign=middle;resizable=0;points=[];autosize=1;strokeColor=none;fillColor=none;fontSize=20;fontFamily=AlimamaDaoLiTi;sketch=1;hachureGap=4;jiggle=2;curveFitting=1;" vertex="1" parent="1">
                    <mxGeometry x="533" y="522" width="24" height="36" as="geometry"/>
                </mxCell>
            </root>
        </mxGraphModel>
    </diagram>
</mxfile>